<svg width="617" height="629" viewBox="0 0 617 629" fill="none" xmlns="http://www.w3.org/2000/svg">
<path d="M511.158 508.19C450.128 546.251 389.483 583.694 329.314 621.887C314.852 631.067 302.933 630.552 288.513 621.539C200.67 566.632 112.4 512.409 24.2813 457.944C20.4284 455.562 16.5265 453.227 12.8736 450.561C-4.71465 437.722 -4.17173 419.276 14.56 408.003C28.2656 399.755 42.4933 392.367 56.5578 384.724C135.115 342.033 213.713 299.415 292.243 256.673C302.121 251.296 311.557 251.206 321.473 256.573C413.911 306.609 506.464 356.436 598.837 406.592C621.054 418.655 621.492 439.04 600.094 452.628C570.771 471.248 541.189 489.46 511.158 508.19Z" fill="#000B29"/>
<path d="M511.158 508.19C450.128 546.251 389.483 583.694 329.314 621.887C314.852 631.067 302.933 630.552 288.513 621.539C200.67 566.632 112.4 512.409 24.2813 457.944C20.4284 455.562 16.5265 453.227 12.8736 450.561C-4.71465 437.722 -4.17173 419.276 14.56 408.003C28.2656 399.755 42.4933 392.367 56.5578 384.724C135.115 342.033 213.713 299.415 292.243 256.673C302.121 251.296 311.557 251.206 321.473 256.573C413.911 306.609 506.464 356.436 598.837 406.592C621.054 418.655 621.492 439.04 600.094 452.628C570.771 471.248 541.189 489.46 511.158 508.19Z" fill="#000B29"/>
<path d="M511.158 508.19C450.128 546.251 389.483 583.694 329.314 621.887C314.852 631.067 302.933 630.552 288.513 621.539C200.67 566.632 112.4 512.409 24.2813 457.944C20.4284 455.562 16.5265 453.227 12.8736 450.561C-4.71465 437.722 -4.17173 419.276 14.56 408.003C28.2656 399.755 42.4933 392.367 56.5578 384.724C135.115 342.033 213.713 299.415 292.243 256.673C302.121 251.296 311.557 251.206 321.473 256.573C413.911 306.609 506.464 356.436 598.837 406.592C621.054 418.655 621.492 439.04 600.094 452.628C570.771 471.248 541.189 489.46 511.158 508.19Z" stroke="black"/>
<path d="M511.075 383.747C450.044 421.808 389.399 459.251 329.23 497.444C314.768 506.624 302.849 506.109 288.429 497.096C200.586 442.189 112.316 387.966 24.1975 333.501C20.3445 331.119 16.4427 328.784 12.7898 326.118C-4.79848 313.279 -4.25556 294.833 14.4762 283.56C28.1818 275.312 42.4094 267.924 56.4739 260.281C135.032 217.59 213.629 174.972 292.159 132.23C302.037 126.854 311.474 126.763 321.389 132.13C413.828 182.167 506.38 231.993 598.753 282.149C620.971 294.212 621.408 314.597 600.01 328.185C570.687 346.805 541.105 365.017 511.075 383.747Z" fill="#F34A4A"/>
<path d="M512.332 255.597C451.301 293.658 390.656 331.101 330.487 369.294C316.025 378.474 304.106 377.959 289.686 368.946C201.843 314.039 113.573 259.815 25.4544 205.35C21.6014 202.969 17.6996 200.633 14.0467 197.967C-3.5416 185.128 -2.99869 166.682 15.7331 155.41C29.4387 147.162 43.6663 139.774 57.7309 132.13C136.289 89.4393 214.886 46.8209 293.416 4.07911C303.294 -1.29727 312.731 -1.38802 322.646 3.97931C415.085 54.0156 507.637 103.843 600.01 153.998C622.228 166.062 622.665 186.446 601.267 200.034C571.944 218.654 542.362 236.867 512.332 255.597Z" fill="#000B29"/>
</svg>
